# xmcd CD database file
#
# Track frame offsets:
#	150
#	31886
#	56476
#	74843
#	96649
#	120127
#	146122
#	170867
#	198643
#	221137
#	244363
#	265000
#	281954
#
# Disc length: 4140 seconds
#
# Revision: 0
# Processed by: cddbd v1.5.2PL0 Copyright (c) Steve Scherf et al.
# Submitted via: CDex 1.70beta2
#
DISCID=dc102a0d
DTITLE=De-Phazz - Detunized Gravity
DYEAR=1997
DGENRE=Jazz
TTITLE0=Roses
TTITLE1=Beetween 2 Thieves
TTITLE2=Homesick Inc.
TTITLE3=Lovechild
TTITLE4=Cut the Jazz
TTITLE5=Little Company
TTITLE6=Nameless Life
TTITLE7=Good Boy
TTITLE8=Lullaby
TTITLE9=Hero Dead and Gone
TTITLE10=No Jive
TTITLE11=Detunized Gravity
TTITLE12=Free Drift
EXTD=YEAR: 1997
EXTT0=
EXTT1=
EXTT2=
EXTT3=
EXTT4=
EXTT5=
EXTT6=
EXTT7=
EXTT8=
EXTT9=
EXTT10=
EXTT11=
EXTT12=
PLAYORDER=
